<?xml version="1.0" standalone="no"?>
<!DOCTYPE svg PUBLIC "-//W3C//DTD SVG 20010904//EN"
 "http://www.w3.org/TR/2001/REC-SVG-20010904/DTD/svg10.dtd">
<svg version="1.0" xmlns="http://www.w3.org/2000/svg"
 width="225.000000pt" height="225.000000pt" viewBox="0 0 225.000000 225.000000"
 preserveAspectRatio="xMidYMid meet">
<metadata>
Created by potrace 1.14, written by Peter Selinger 2001-2017
</metadata>
<g transform="translate(0.000000,225.000000) scale(0.100000,-0.100000)"
fill="#000000" stroke="none">
<path d="M885 2023 c-263 -31 -507 -87 -658 -152 l-48 -21 26 -51 c20 -38 31
-50 43 -45 9 3 76 25 148 50 453 156 982 152 1429 -9 147 -53 137 -53 163 0
12 25 22 49 22 54 0 14 -263 98 -393 126 -175 38 -351 55 -537 54 -91 -1 -178
-4 -195 -6z"/>
<path d="M770 1843 c-164 -25 -345 -75 -459 -125 l-53 -23 69 -66 c38 -36 94
-78 123 -92 l54 -27 21 42 c28 60 70 78 203 89 58 4 107 7 108 6 1 -1 60 -325
130 -721 86 -480 131 -710 136 -695 4 13 62 335 128 714 67 380 125 693 129
696 12 12 218 -9 249 -25 37 -19 72 -62 72 -87 0 -25 2 -24 73 13 71 38 186
143 172 157 -6 5 -54 25 -108 45 -156 58 -374 105 -489 106 l-47 0 -91 -110
c-50 -60 -92 -110 -94 -110 -2 0 -44 49 -92 110 l-89 110 -60 -1 c-33 -1 -71
-3 -85 -6z"/>
</g>
</svg>
